<svg id="Capa_1" enable-background="new 0 0 512 512" height="512" viewBox="0 0 512 512" width="512" xmlns="http://www.w3.org/2000/svg"><path d="m369.426 504.485h-226.853l-54.106-496.97h335.065z" fill="#eaeff9"/><path d="m405.496 7.515-54.105 496.97h18.035l54.106-496.97z" fill="#dbe0ea"/><path d="m378.331 422.694 30.543-280.546h-305.749l30.543 280.546c2.214 20.336 19.387 35.741 39.843 35.741h164.977c20.456-.001 37.629-15.406 39.843-35.741z" fill="#5ce9ff"/><path d="m390.839 142.148-30.543 280.546c-2.214 20.336-19.387 35.741-39.843 35.741h18.035c20.456 0 37.629-15.405 39.843-35.741l30.543-280.546z" fill="#00e3f9"/><path d="m429.126 2.497c-1.426-1.589-3.459-2.497-5.594-2.497h-243.383c-4.151 0-7.515 3.364-7.515 7.515s3.364 7.515 7.515 7.515h235.005l-13.021 119.604h-51.622c-4.151 0-7.515 3.364-7.515 7.515s3.364 7.515 7.515 7.515h49.985l-29.636 272.222c-1.805 16.552-15.721 29.033-32.372 29.033h-164.977c-16.651 0-30.567-12.482-32.372-29.033l-29.637-272.224h208.95c4.151 0 7.515-3.364 7.515-7.515s-3.364-7.515-7.515-7.515h-210.586l-13.021-119.603h53.246c4.151 0 7.515-3.364 7.515-7.515s-3.365-7.514-7.516-7.514h-61.623c-4.406 0-7.947 3.948-7.471 8.328l54.106 496.971c.415 3.813 3.635 6.702 7.471 6.702h57.247c4.151 0 7.515-3.364 7.515-7.515s-3.364-7.515-7.515-7.515h-50.506l-4.415-40.557c7.99 6.007 17.914 9.535 28.613 9.535h164.977c10.699 0 20.624-3.528 28.613-9.535l-4.415 40.557h-132.809c-4.151 0-7.515 3.364-7.515 7.515s3.364 7.515 7.515 7.515h139.548c3.836 0 7.056-2.888 7.471-6.702l54.105-496.971c.231-2.122-.451-4.242-1.876-5.831z"/></svg>