<svg height="512" viewBox="0 0 128 128" width="512" xmlns="http://www.w3.org/2000/svg"><g id="Layer_3" data-name="Layer 3"><rect fill="#fec13b" height="13.736" rx="1.75" width="34.334" x="11.083" y="62.25"/><path d="m45.329 62.488a12.745 12.745 0 0 0 -1.608-4.945 1.75 1.75 0 0 0 -1.521-.883h-.006a1.748 1.748 0 0 0 -1.52.893 9.161 9.161 0 0 1 -17.154-4.473v-.16a1.75 1.75 0 0 0 -2.113-1.712 13.076 13.076 0 0 0 -10.327 12.792 1.75 1.75 0 0 0 1.75 1.75h30.84a1.75 1.75 0 0 0 1.75-1.75 13.068 13.068 0 0 0 -.091-1.512z" fill="#ba68c8"/><path d="m36.84 75.986h6.827a1.75 1.75 0 0 0 1.75-1.75v-10.236a1.75 1.75 0 0 0 -1.75-1.75h-6.827z" fill="#ffa000"/><path d="m43.59 72.49h-29.01v-43.04a1.75 1.75 0 0 0 -1.75-1.75h-11.08a1.75 1.75 0 0 0 -1.75 1.75v69.1a1.75 1.75 0 0 0 1.75 1.75h12a1.75 1.75 0 0 0 1.75-1.75 10.422 10.422 0 0 1 10.41-10.41h14.43a1.751 1.751 0 0 0 1.6-1.05l3.25-7.45a1.76 1.76 0 0 0 .146-.7v-4.7a1.75 1.75 0 0 0 -1.746-1.75z" fill="#495766"/><path d="m126.25 72.49h-71.11a1.75 1.75 0 0 0 -1.75 1.75v4.336l-3.09 7.116a1.749 1.749 0 0 0 1.6 2.448h50.19a10.422 10.422 0 0 1 10.41 10.41 1.75 1.75 0 0 0 1.75 1.75h12a1.75 1.75 0 0 0 1.75-1.75v-24.31a1.75 1.75 0 0 0 -1.75-1.75z" fill="#495766"/><path d="m32.68 40.42a12.724 12.724 0 0 0 -12.66 12.5v.16a12.66 12.66 0 1 0 12.66-12.66z" fill="#f6b493"/><rect fill="#ba68c8" height="30.73" rx="1.75" width="19.061" x="53.39" y="45.26"/><path d="m56.89 45.26h-4.81a10.24 10.24 0 0 0 -10.24 10.24v23.075l-3.54 8.135a7.34 7.34 0 0 0 .1 6.29 6.83 6.83 0 0 0 4.721 3.59 7.095 7.095 0 0 0 8.01-4.06l5.609-12.892a1.752 1.752 0 0 0 .146-.7z" fill="#f6b493"/><path d="m36.84 65.75h6.83a1.75 1.75 0 0 0 1.75-1.75 13.068 13.068 0 0 0 -.091-1.512 12.745 12.745 0 0 0 -1.608-4.945 1.75 1.75 0 0 0 -1.521-.883h-.006a1.748 1.748 0 0 0 -1.52.893 9.172 9.172 0 0 1 -3.835 3.663z" fill="#ab47bc"/><path d="m45.34 53.08a12.608 12.608 0 0 0 -3.56-8.78 15.186 15.186 0 0 0 -4.94 11.2v9.534a12.649 12.649 0 0 0 8.5-11.954z" fill="#e59a7a"/><path d="m56.89 45.26h-4.81a10.24 10.24 0 0 0 -10.24 10.24v23.075l-3.54 8.135a7.34 7.34 0 0 0 .1 6.29 6.83 6.83 0 0 0 4.721 3.59 7.095 7.095 0 0 0 8.01-4.06l5.609-12.892a1.752 1.752 0 0 0 .146-.7z" fill="#f6b493"/><path d="m56.89 45.26h-4.81a10.24 10.24 0 0 0 -10.24 10.24v23.075l-3.54 8.135a7.34 7.34 0 0 0 .1 6.29 6.83 6.83 0 0 0 4.721 3.59 7.095 7.095 0 0 0 8.01-4.06l5.609-12.892a1.752 1.752 0 0 0 .146-.7z" fill="#f6b493"/><path d="m111.38 45.26h-42.43v30.73h59.05v-14.11a16.62 16.62 0 0 0 -16.62-16.62z" fill="#4db6ac"/><path d="m53.217 37.75h-6.551a1.75 1.75 0 0 1 -1.237-2.987l3.562-3.563h-2.658a1.75 1.75 0 0 1 0-3.5h6.884a1.75 1.75 0 0 1 1.237 2.987l-3.562 3.563h2.325a1.75 1.75 0 1 1 0 3.5z" fill="#ba68c8"/><path d="m70.328 33.747h-9.317a1.75 1.75 0 0 1 -1.237-2.987l6.33-6.331h-5.567a1.75 1.75 0 0 1 0-3.5h9.791a1.75 1.75 0 0 1 1.237 2.987l-6.33 6.331h5.093a1.75 1.75 0 0 1 0 3.5z" fill="#ba68c8"/><path d="m1.738 100.3h12a1.75 1.75 0 0 0 1.75-1.75 10.422 10.422 0 0 1 10.412-10.41h11.922a7.192 7.192 0 0 0 .57 4.86 6.829 6.829 0 0 0 4.721 3.589 7.094 7.094 0 0 0 8.01-4.061l1.91-4.389h15.917a1.75 1.75 0 0 0 0-3.5h-14.392l2.175-5a1.75 1.75 0 0 0 .146-.7v-2.949h67.61v20.81h-8.609a13.931 13.931 0 0 0 -13.8-12.16h-15.247a1.75 1.75 0 0 0 0 3.5h15.245a10.422 10.422 0 0 1 10.41 10.41 1.75 1.75 0 0 0 1.75 1.75h12a1.75 1.75 0 0 0 1.75-1.75v-36.67a16.644 16.644 0 0 0 -16.63-16.62h-15.608a1.75 1.75 0 0 0 0 3.5h15.608a13.14 13.14 0 0 1 13.13 13.12v10.61h-52.05v-23.73h15.312a1.75 1.75 0 0 0 0-3.5h-35.682a10.2 10.2 0 0 0 -7.568 3.363 12.647 12.647 0 0 0 -24.4 2.938 13.109 13.109 0 0 0 -5.2 3.182c-.117.117-.22.245-.332.366v-25.659a1.75 1.75 0 0 0 -1.75-1.75h-11.08a1.75 1.75 0 0 0 -1.75 1.75v69.1a1.75 1.75 0 0 0 1.75 1.75zm39.922-38.312.031-.031c.021.1.039.195.057.293h-.355c.09-.086.179-.174.267-.262zm.168 3.762v6.736h-27.257v-6.736zm27.11 6.74h-12.06v-23.73h12.06zm-16.87-23.73h1.31v29.816l-5.462 12.551a3.544 3.544 0 0 1 -4.052 2.044 3.389 3.389 0 0 1 -2.354-1.761 3.866 3.866 0 0 1 -.017-3.306l3.688-8.464a1.76 1.76 0 0 0 .146-.7v-4.22a1.732 1.732 0 0 0 .076-.484v-10.2c0-.013 0-.025 0-.039a13.023 13.023 0 0 0 -.08-1.333v-7.164a6.748 6.748 0 0 1 6.745-6.74zm-19.4-4.84a9.16 9.16 0 1 1 -9.16 9.16v-.134a9.2 9.2 0 0 1 9.16-9.026zm-15.3 13.3a9.69 9.69 0 0 1 2.832-1.955 12.778 12.778 0 0 0 3.751 6.985h-9.224a9.507 9.507 0 0 1 2.644-5.028zm-13.88-26.02h7.58v43.04a1.75 1.75 0 0 0 1.75 1.75h29.01v2.584l-2.645 6.066h-13.283a13.931 13.931 0 0 0 -13.8 12.16h-8.612z"/><path d="m76.617 84.64a1.75 1.75 0 0 0 0 3.5h2.55a1.75 1.75 0 0 0 0-3.5z"/><path d="m45.037 36.67a1.751 1.751 0 0 0 1.617 1.08h6.546a1.75 1.75 0 0 0 0-3.5h-2.321l3.563-3.562a1.75 1.75 0 0 0 -1.242-2.988h-6.879a1.75 1.75 0 0 0 0 3.5h2.658l-3.562 3.562a1.75 1.75 0 0 0 -.38 1.908z"/><path d="m59.382 32.667a1.751 1.751 0 0 0 1.618 1.08h9.317a1.75 1.75 0 0 0 0-3.5h-5.093l6.33-6.331a1.75 1.75 0 0 0 -1.237-2.987h-9.792a1.75 1.75 0 0 0 0 3.5h5.566l-6.33 6.331a1.75 1.75 0 0 0 -.379 1.907z"/></g></svg>