<svg id="Layer_1" height="512" viewBox="0 0 512 512" width="512" xmlns="http://www.w3.org/2000/svg" data-name="Layer 1"><path d="m316.17 140.35c37.8-26.03 126.86 3.68 91.88 164.33l-25.04 89.66-80.42-37.85-24.82-116.87c-10.39-71.59 38.4-99.27 38.4-99.27z" fill="#e48e66"/><path d="m376.77 431.56-1.8 26.58a40.616 40.616 0 0 1 -40.48 37.86c-.92 0-1.85-.03-2.78-.09a40.607 40.607 0 0 1 -37.76-43.26l3.82-56.42z" fill="#e48e66"/><path d="m196.01 24.39s48.74 27.77 38.21 99.34l-25.03 116.82-80.49 37.7-24.88-89.71c-34.67-160.71 54.44-190.26 92.19-164.15z" fill="#f8ec7d"/><path d="m217.65 336.73a40.6 40.6 0 0 1 -37.85 43.18c-.91.06-1.82.09-2.72.09a40.594 40.594 0 0 1 -40.46-37.93l-1.75-26.59 79.06-35.18z" fill="#f8ec7d"/><g fill="#63316d"><path d="m300.219 390.753a6 6 0 0 0 -8.436 5.072l-3.819 56.418a46.606 46.606 0 0 0 43.359 49.657c1.051.068 2.116.1 3.167.1a46.728 46.728 0 0 0 46.466-43.455l1.8-26.58a6 6 0 0 0 -3.537-5.882zm68.764 66.979a34.692 34.692 0 0 1 -34.493 32.268c-.794 0-1.6-.026-2.373-.076a34.607 34.607 0 0 1 -32.18-36.869l3.238-47.835 67.325 30.109z"/><path d="m271.9 240.867 24.821 116.87a6 6 0 0 0 3.314 4.182l80.42 37.85a6 6 0 0 0 8.334-3.815l25.04-89.66c.03-.111.059-.224.083-.337 9.6-44.066 10.7-81.628 3.286-111.643-6.31-25.544-18.869-45.235-36.318-56.946-21.425-14.378-48.692-15.207-67.927-2.087-1.956 1.162-14.019 8.728-24.825 24.461-10.551 15.361-21.941 41.838-16.3 80.74.023.129.045.257.072.385zm25.785-73.84c9.975-14.745 21.349-21.4 21.446-21.458.151-.086.3-.178.442-.277 12.672-8.726 34.475-11.478 54.62 2.041 34.341 23.045 44.555 79.863 28.031 155.9l-23.083 82.654-71.3-33.558-24.161-113.762c-4.001-27.822.711-51.89 14.005-71.54z"/><path d="m217.031 275.163a6 6 0 0 0 -5.54-.345l-79.06 35.182a6 6 0 0 0 -3.548 5.876l1.75 26.589a46.68 46.68 0 0 0 46.447 43.535c1.033 0 2.081-.035 3.113-.1a46.6 46.6 0 0 0 43.444-49.562l-3.72-56.43a6 6 0 0 0 -2.886-4.745zm-13.875 87.037a34.368 34.368 0 0 1 -23.752 11.72c-.772.051-1.553.077-2.324.077a34.65 34.65 0 0 1 -34.473-32.324l-1.475-22.415 67.377-29.982 3.154 47.845a34.382 34.382 0 0 1 -8.507 25.079z"/><path d="m98.038 190.144 24.88 89.71a6 6 0 0 0 8.327 3.83l80.49-37.7a6 6 0 0 0 3.322-4.176l25.03-116.82c.027-.127.05-.255.069-.383 5.722-38.891-5.619-65.39-16.14-80.77-10.775-15.752-22.823-23.335-24.779-24.508-19.208-13.158-46.471-12.384-67.923 1.95-17.472 11.676-30.069 31.343-36.429 56.876-7.474 30-6.441 67.567 3.07 111.652.024.114.052.227.083.339zm39.944-158.89c20.168-13.477 41.962-10.68 54.615-1.929q.215.149.443.279c.109.062 11.1 6.426 21.071 21.005 13.514 19.755 18.292 44 14.2 72.057l-24.364 113.714-71.363 33.425-22.936-82.7c-16.378-76.074-6.054-132.872 28.334-155.851z"/></g></svg>